<svg xmlns="http://www.w3.org/2000/svg" xmlns:xlink="http://www.w3.org/1999/xlink" width="40" zoomAndPan="magnify" viewBox="0 0 30 30.000001" height="40" preserveAspectRatio="xMidYMid meet" version="1.0"><defs><g/></defs><path stroke-linecap="butt" transform="matrix(0.0772126, 0, 0, 0.0772126, 6.08342, 10.757163)" fill="none" stroke-linejoin="miter" d="M 2.309188 65.978834 L 2.309188 13.617338 L 23.304377 13.617338 L 23.304377 23.786093 L 12.882668 23.786093 L 12.882668 32.133577 L 22.747878 32.133577 L 22.747878 42.20115 L 12.882668 42.20115 L 12.882668 65.978834 Z M 26.643371 13.617338 L 42.781841 13.617338 C 45.311382 13.617338 47.284424 14.173837 48.700967 15.337426 C 50.117509 16.501015 51.078735 18.119921 51.534052 20.194145 C 52.03996 22.318959 52.292915 25.000272 52.292915 28.238084 C 52.292915 31.222943 51.888188 33.55012 51.129326 35.219617 C 50.370464 36.838523 49.004511 38.002112 47.08206 38.659793 C 48.700967 39.013928 49.813965 39.772791 50.522236 41.037561 C 51.230507 42.302331 51.635234 44.022419 51.635234 46.197824 L 51.483462 65.978834 L 41.264117 65.978834 L 41.264117 45.489553 C 41.264117 44.022419 40.960572 43.111785 40.404073 42.707058 C 39.796983 42.302331 38.785167 42.099968 37.267442 42.099968 L 37.267442 65.978834 L 26.643371 65.978834 Z M 39.847574 32.993621 C 41.314707 32.993621 42.022979 31.425306 42.022979 28.238084 C 42.022979 26.872132 41.972388 25.809725 41.820616 25.152045 C 41.719434 24.443773 41.517071 23.937865 41.162935 23.684911 C 40.85939 23.431957 40.404073 23.280184 39.746392 23.280184 L 37.318033 23.280184 L 37.318033 32.993621 Z M 68.279613 66.484742 C 64.029984 66.484742 60.792172 65.219971 58.616767 62.63984 C 56.441362 60.059708 55.328364 56.417169 55.328364 51.712223 L 55.328364 26.770951 C 55.328364 22.268368 56.441362 18.878783 58.616767 16.551606 C 60.792172 14.275019 64.029984 13.11143 68.279613 13.11143 C 72.47865 13.11143 75.716463 14.275019 77.891868 16.551606 C 80.117864 18.878783 81.180271 22.268368 81.180271 26.770951 L 81.180271 51.712223 C 81.180271 56.46776 80.117864 60.110299 77.891868 62.63984 C 75.716463 65.219971 72.47865 66.484742 68.279613 66.484742 Z M 68.279613 56.872487 C 69.190247 56.872487 69.847928 56.46776 70.151473 55.658307 C 70.455018 54.798263 70.657381 53.685265 70.657381 52.218132 L 70.657381 26.568587 C 70.657381 25.45559 70.505609 24.544955 70.202064 23.836683 C 69.898519 23.077821 69.240838 22.723685 68.330203 22.723685 C 66.559525 22.723685 65.699481 24.089637 65.699481 26.72036 L 65.699481 52.268722 C 65.699481 53.786447 65.901844 54.899445 66.25598 55.708898 C 66.610116 56.46776 67.267796 56.872487 68.279613 56.872487 Z M 85.4299 65.978834 L 85.4299 13.617338 L 96.205743 13.617338 L 101.011871 38.659793 L 101.011871 13.617338 L 111.130034 13.617338 L 111.130034 65.978834 L 100.910689 65.978834 L 95.649244 39.772791 L 95.649244 65.978834 Z M 120.286972 65.978834 L 120.286972 23.63432 L 114.064302 23.63432 L 114.064302 13.617338 L 137.032533 13.617338 L 137.032533 23.63432 L 130.759271 23.63432 L 130.759271 65.978834 Z M 139.916209 65.978834 L 139.916209 13.617338 L 160.911398 13.617338 L 160.911398 23.735502 L 150.590871 23.735502 L 150.590871 33.904256 L 160.506671 33.904256 L 160.506671 43.769465 L 150.590871 43.769465 L 150.590871 55.81008 L 161.619669 55.81008 L 161.619669 65.978834 Z M 165.059845 13.617338 L 181.198315 13.617338 C 183.727856 13.617338 185.700898 14.173837 187.117441 15.337426 C 188.533984 16.501015 189.495209 18.119921 189.950527 20.194145 C 190.456435 22.318959 190.709389 25.000272 190.709389 28.238084 C 190.709389 31.222943 190.304662 33.55012 189.5458 35.219617 C 188.736347 36.838523 187.420986 38.002112 185.498535 38.659793 C 187.117441 39.013928 188.230439 39.772791 188.93871 41.037561 C 189.646982 42.302331 190.001118 44.022419 190.001118 46.197824 L 189.899936 65.978834 L 179.63 65.978834 L 179.63 45.489553 C 179.63 44.022419 179.377046 43.111785 178.769956 42.707058 C 178.213457 42.302331 177.201641 42.099968 175.683916 42.099968 L 175.683916 65.978834 L 165.059845 65.978834 Z M 178.264048 32.993621 C 179.731182 32.993621 180.439453 31.425306 180.439453 28.238084 C 180.439453 26.872132 180.388862 25.809725 180.23709 25.152045 C 180.135908 24.443773 179.882954 23.937865 179.579409 23.684911 C 179.275864 23.431957 178.769956 23.280184 178.162866 23.280184 L 175.734507 23.280184 L 175.734507 32.993621 Z M 192.733022 65.978834 L 197.842694 13.617338 L 215.54948 13.617338 L 220.557971 65.978834 L 210.642171 65.978834 L 209.883309 57.530167 L 203.559456 57.530167 L 202.952367 65.978834 Z M 204.36891 49.182683 L 209.124446 49.182683 L 206.797269 22.521322 L 206.291361 22.521322 Z M 204.36891 49.182683 " stroke="#808080" stroke-width="4.5759" stroke-opacity="1" stroke-miterlimit="4"/><g fill="#ffffff" fill-opacity="1"><g transform="translate(6.08342, 15.853197)"><g><path d="M 0.171875 0 L 0.171875 -4.046875 L 1.796875 -4.046875 L 1.796875 -3.25 L 1 -3.25 L 1 -2.609375 L 1.75 -2.609375 L 1.75 -1.828125 L 1 -1.828125 L 1 0 Z M 0.171875 0 "/></g></g></g><g fill="#ffffff" fill-opacity="1"><g transform="translate(7.962702, 15.853197)"><g><path d="M 0.171875 -4.046875 L 1.421875 -4.046875 C 1.617188 -4.046875 1.769531 -4 1.875 -3.90625 C 1.988281 -3.8125 2.0625 -3.679688 2.09375 -3.515625 C 2.132812 -3.359375 2.15625 -3.15625 2.15625 -2.90625 C 2.15625 -2.675781 2.125 -2.5 2.0625 -2.375 C 2 -2.25 1.894531 -2.160156 1.75 -2.109375 C 1.875 -2.078125 1.960938 -2.015625 2.015625 -1.921875 C 2.078125 -1.828125 2.109375 -1.695312 2.109375 -1.53125 L 2.09375 0 L 1.296875 0 L 1.296875 -1.578125 C 1.296875 -1.691406 1.273438 -1.765625 1.234375 -1.796875 C 1.191406 -1.828125 1.113281 -1.84375 1 -1.84375 L 1 0 L 0.171875 0 Z M 1.1875 -2.546875 C 1.300781 -2.546875 1.359375 -2.664062 1.359375 -2.90625 C 1.359375 -3.019531 1.351562 -3.101562 1.34375 -3.15625 C 1.332031 -3.207031 1.316406 -3.242188 1.296875 -3.265625 C 1.273438 -3.285156 1.238281 -3.296875 1.1875 -3.296875 L 1 -3.296875 L 1 -2.546875 Z M 1.1875 -2.546875 "/></g></g></g><g fill="#ffffff" fill-opacity="1"><g transform="translate(10.209362, 15.853197)"><g><path d="M 1.140625 0.03125 C 0.816406 0.03125 0.566406 -0.0664062 0.390625 -0.265625 C 0.222656 -0.460938 0.140625 -0.738281 0.140625 -1.09375 L 0.140625 -3.03125 C 0.140625 -3.375 0.222656 -3.632812 0.390625 -3.8125 C 0.566406 -3.988281 0.816406 -4.078125 1.140625 -4.078125 C 1.460938 -4.078125 1.707031 -3.988281 1.875 -3.8125 C 2.050781 -3.632812 2.140625 -3.375 2.140625 -3.03125 L 2.140625 -1.09375 C 2.140625 -0.738281 2.050781 -0.460938 1.875 -0.265625 C 1.707031 -0.0664062 1.460938 0.03125 1.140625 0.03125 Z M 1.140625 -0.703125 C 1.210938 -0.703125 1.257812 -0.734375 1.28125 -0.796875 C 1.3125 -0.859375 1.328125 -0.945312 1.328125 -1.0625 L 1.328125 -3.03125 C 1.328125 -3.125 1.3125 -3.195312 1.28125 -3.25 C 1.257812 -3.300781 1.210938 -3.328125 1.140625 -3.328125 C 1.003906 -3.328125 0.9375 -3.226562 0.9375 -3.03125 L 0.9375 -1.0625 C 0.9375 -0.945312 0.953125 -0.859375 0.984375 -0.796875 C 1.015625 -0.734375 1.066406 -0.703125 1.140625 -0.703125 Z M 1.140625 -0.703125 "/></g></g></g><g fill="#ffffff" fill-opacity="1"><g transform="translate(12.498412, 15.853197)"><g><path d="M 0.171875 0 L 0.171875 -4.046875 L 1.015625 -4.046875 L 1.375 -2.109375 L 1.375 -4.046875 L 2.15625 -4.046875 L 2.15625 0 L 1.375 0 L 0.96875 -2.015625 L 0.96875 0 Z M 0.171875 0 "/></g></g></g><g fill="#ffffff" fill-opacity="1"><g transform="translate(14.843981, 15.853197)"><g><path d="M 0.53125 0 L 0.53125 -3.265625 L 0.046875 -3.265625 L 0.046875 -4.046875 L 1.8125 -4.046875 L 1.8125 -3.265625 L 1.328125 -3.265625 L 1.328125 0 Z M 0.53125 0 "/></g></g></g><g fill="#ffffff" fill-opacity="1"><g transform="translate(16.709132, 15.853197)"><g><path d="M 0.171875 0 L 0.171875 -4.046875 L 1.796875 -4.046875 L 1.796875 -3.265625 L 1 -3.265625 L 1 -2.46875 L 1.765625 -2.46875 L 1.765625 -1.71875 L 1 -1.71875 L 1 -0.78125 L 1.84375 -0.78125 L 1.84375 0 Z M 0.171875 0 "/></g></g></g><g fill="#ffffff" fill-opacity="1"><g transform="translate(18.649644, 15.853197)"><g><path d="M 0.171875 -4.046875 L 1.421875 -4.046875 C 1.617188 -4.046875 1.769531 -4 1.875 -3.90625 C 1.988281 -3.8125 2.0625 -3.679688 2.09375 -3.515625 C 2.132812 -3.359375 2.15625 -3.15625 2.15625 -2.90625 C 2.15625 -2.675781 2.125 -2.5 2.0625 -2.375 C 2 -2.25 1.894531 -2.160156 1.75 -2.109375 C 1.875 -2.078125 1.960938 -2.015625 2.015625 -1.921875 C 2.078125 -1.828125 2.109375 -1.695312 2.109375 -1.53125 L 2.09375 0 L 1.296875 0 L 1.296875 -1.578125 C 1.296875 -1.691406 1.273438 -1.765625 1.234375 -1.796875 C 1.191406 -1.828125 1.113281 -1.84375 1 -1.84375 L 1 0 L 0.171875 0 Z M 1.1875 -2.546875 C 1.300781 -2.546875 1.359375 -2.664062 1.359375 -2.90625 C 1.359375 -3.019531 1.351562 -3.101562 1.34375 -3.15625 C 1.332031 -3.207031 1.316406 -3.242188 1.296875 -3.265625 C 1.273438 -3.285156 1.238281 -3.296875 1.1875 -3.296875 L 1 -3.296875 L 1 -2.546875 Z M 1.1875 -2.546875 "/></g></g></g><g fill="#ffffff" fill-opacity="1"><g transform="translate(20.896303, 15.853197)"><g><path d="M 0.078125 0 L 0.453125 -4.046875 L 1.828125 -4.046875 L 2.21875 0 L 1.453125 0 L 1.390625 -0.65625 L 0.90625 -0.65625 L 0.859375 0 Z M 0.96875 -1.296875 L 1.328125 -1.296875 L 1.15625 -3.359375 L 1.109375 -3.359375 Z M 0.96875 -1.296875 "/></g></g></g><g fill="#6de4e9" fill-opacity="1"><g transform="translate(9.805009, 17.428242)"><g><path d="M 0.515625 0.015625 C 0.429688 0.015625 0.351562 0 0.28125 -0.03125 C 0.21875 -0.0703125 0.164062 -0.125 0.125 -0.1875 C 0.09375 -0.257812 0.078125 -0.34375 0.078125 -0.4375 C 0.078125 -0.539062 0.09375 -0.625 0.125 -0.6875 C 0.164062 -0.757812 0.21875 -0.8125 0.28125 -0.84375 C 0.351562 -0.882812 0.429688 -0.90625 0.515625 -0.90625 C 0.597656 -0.90625 0.671875 -0.882812 0.734375 -0.84375 C 0.804688 -0.8125 0.859375 -0.757812 0.890625 -0.6875 C 0.929688 -0.625 0.953125 -0.539062 0.953125 -0.4375 C 0.953125 -0.34375 0.929688 -0.257812 0.890625 -0.1875 C 0.859375 -0.125 0.804688 -0.0703125 0.734375 -0.03125 C 0.671875 0 0.597656 0.015625 0.515625 0.015625 Z M 0.515625 -0.171875 C 0.648438 -0.171875 0.71875 -0.257812 0.71875 -0.4375 C 0.71875 -0.53125 0.695312 -0.597656 0.65625 -0.640625 C 0.625 -0.691406 0.578125 -0.71875 0.515625 -0.71875 C 0.378906 -0.71875 0.3125 -0.625 0.3125 -0.4375 C 0.3125 -0.257812 0.378906 -0.171875 0.515625 -0.171875 Z M 0.515625 -0.171875 "/></g></g></g><g fill="#6de4e9" fill-opacity="1"><g transform="translate(10.835867, 17.428242)"><g><path d="M 0.40625 0.015625 C 0.300781 0.015625 0.222656 -0.0078125 0.171875 -0.0625 C 0.128906 -0.113281 0.109375 -0.191406 0.109375 -0.296875 L 0.109375 -0.890625 L 0.328125 -0.890625 L 0.328125 -0.328125 C 0.328125 -0.273438 0.335938 -0.234375 0.359375 -0.203125 C 0.390625 -0.179688 0.429688 -0.171875 0.484375 -0.171875 C 0.546875 -0.171875 0.59375 -0.191406 0.625 -0.234375 C 0.65625 -0.273438 0.671875 -0.335938 0.671875 -0.421875 L 0.671875 -0.890625 L 0.890625 -0.890625 L 0.890625 0 L 0.6875 0 L 0.6875 -0.125 L 0.671875 -0.140625 C 0.640625 -0.0859375 0.601562 -0.046875 0.5625 -0.015625 C 0.519531 0.00390625 0.46875 0.015625 0.40625 0.015625 Z M 0.40625 0.015625 "/></g></g></g><g fill="#6de4e9" fill-opacity="1"><g transform="translate(11.861901, 17.428242)"><g><path d="M 0.609375 -0.203125 L 0.671875 -0.046875 C 0.640625 -0.0234375 0.601562 -0.0078125 0.5625 0 C 0.53125 0.0078125 0.492188 0.015625 0.453125 0.015625 C 0.359375 0.015625 0.285156 -0.0078125 0.234375 -0.0625 C 0.179688 -0.113281 0.15625 -0.1875 0.15625 -0.28125 L 0.15625 -0.703125 L 0.03125 -0.703125 L 0.03125 -0.890625 L 0.15625 -0.890625 L 0.15625 -1.0625 L 0.390625 -1.09375 L 0.390625 -0.890625 L 0.640625 -0.890625 L 0.640625 -0.703125 L 0.390625 -0.703125 L 0.390625 -0.296875 C 0.390625 -0.253906 0.394531 -0.222656 0.40625 -0.203125 C 0.425781 -0.179688 0.453125 -0.171875 0.484375 -0.171875 C 0.523438 -0.171875 0.5625 -0.179688 0.59375 -0.203125 Z M 0.609375 -0.203125 "/></g></g></g><g fill="#6de4e9" fill-opacity="1"><g transform="translate(12.551017, 17.428242)"><g><path d="M 0.40625 0.015625 C 0.351562 0.015625 0.300781 0.0078125 0.25 0 C 0.195312 -0.0195312 0.148438 -0.0390625 0.109375 -0.0625 C 0.078125 -0.0820312 0.0546875 -0.109375 0.046875 -0.140625 L 0.15625 -0.28125 L 0.1875 -0.28125 C 0.207031 -0.238281 0.238281 -0.207031 0.28125 -0.1875 C 0.320312 -0.164062 0.367188 -0.15625 0.421875 -0.15625 C 0.460938 -0.15625 0.492188 -0.160156 0.515625 -0.171875 C 0.535156 -0.191406 0.546875 -0.21875 0.546875 -0.25 C 0.546875 -0.269531 0.535156 -0.285156 0.515625 -0.296875 C 0.503906 -0.316406 0.484375 -0.332031 0.453125 -0.34375 L 0.328125 -0.375 C 0.242188 -0.394531 0.179688 -0.425781 0.140625 -0.46875 C 0.0976562 -0.507812 0.078125 -0.5625 0.078125 -0.625 C 0.078125 -0.6875 0.0859375 -0.738281 0.109375 -0.78125 C 0.140625 -0.820312 0.179688 -0.851562 0.234375 -0.875 C 0.285156 -0.894531 0.347656 -0.90625 0.421875 -0.90625 C 0.492188 -0.90625 0.554688 -0.890625 0.609375 -0.859375 C 0.660156 -0.835938 0.703125 -0.8125 0.734375 -0.78125 L 0.609375 -0.640625 L 0.59375 -0.640625 C 0.570312 -0.671875 0.546875 -0.691406 0.515625 -0.703125 C 0.484375 -0.710938 0.453125 -0.71875 0.421875 -0.71875 C 0.328125 -0.71875 0.28125 -0.691406 0.28125 -0.640625 C 0.28125 -0.617188 0.285156 -0.597656 0.296875 -0.578125 C 0.316406 -0.566406 0.347656 -0.554688 0.390625 -0.546875 L 0.5 -0.53125 C 0.59375 -0.507812 0.660156 -0.476562 0.703125 -0.4375 C 0.742188 -0.394531 0.765625 -0.335938 0.765625 -0.265625 C 0.765625 -0.210938 0.75 -0.160156 0.71875 -0.109375 C 0.6875 -0.0664062 0.644531 -0.0351562 0.59375 -0.015625 C 0.539062 0.00390625 0.476562 0.015625 0.40625 0.015625 Z M 0.40625 0.015625 "/></g></g></g><g fill="#6de4e9" fill-opacity="1"><g transform="translate(13.368789, 17.428242)"><g><path d="M 0.515625 0.015625 C 0.429688 0.015625 0.351562 0 0.28125 -0.03125 C 0.21875 -0.0703125 0.164062 -0.125 0.125 -0.1875 C 0.09375 -0.257812 0.078125 -0.34375 0.078125 -0.4375 C 0.078125 -0.539062 0.09375 -0.625 0.125 -0.6875 C 0.164062 -0.757812 0.21875 -0.8125 0.28125 -0.84375 C 0.351562 -0.882812 0.429688 -0.90625 0.515625 -0.90625 C 0.597656 -0.90625 0.671875 -0.882812 0.734375 -0.84375 C 0.804688 -0.8125 0.859375 -0.757812 0.890625 -0.6875 C 0.929688 -0.625 0.953125 -0.539062 0.953125 -0.4375 C 0.953125 -0.34375 0.929688 -0.257812 0.890625 -0.1875 C 0.859375 -0.125 0.804688 -0.0703125 0.734375 -0.03125 C 0.671875 0 0.597656 0.015625 0.515625 0.015625 Z M 0.515625 -0.171875 C 0.648438 -0.171875 0.71875 -0.257812 0.71875 -0.4375 C 0.71875 -0.53125 0.695312 -0.597656 0.65625 -0.640625 C 0.625 -0.691406 0.578125 -0.71875 0.515625 -0.71875 C 0.378906 -0.71875 0.3125 -0.625 0.3125 -0.4375 C 0.3125 -0.257812 0.378906 -0.171875 0.515625 -0.171875 Z M 0.515625 -0.171875 "/></g></g></g><g fill="#6de4e9" fill-opacity="1"><g transform="translate(14.399648, 17.428242)"><g><path d="M 0.40625 0.015625 C 0.300781 0.015625 0.222656 -0.0078125 0.171875 -0.0625 C 0.128906 -0.113281 0.109375 -0.191406 0.109375 -0.296875 L 0.109375 -0.890625 L 0.328125 -0.890625 L 0.328125 -0.328125 C 0.328125 -0.273438 0.335938 -0.234375 0.359375 -0.203125 C 0.390625 -0.179688 0.429688 -0.171875 0.484375 -0.171875 C 0.546875 -0.171875 0.59375 -0.191406 0.625 -0.234375 C 0.65625 -0.273438 0.671875 -0.335938 0.671875 -0.421875 L 0.671875 -0.890625 L 0.890625 -0.890625 L 0.890625 0 L 0.6875 0 L 0.6875 -0.125 L 0.671875 -0.140625 C 0.640625 -0.0859375 0.601562 -0.046875 0.5625 -0.015625 C 0.519531 0.00390625 0.46875 0.015625 0.40625 0.015625 Z M 0.40625 0.015625 "/></g></g></g><g fill="#6de4e9" fill-opacity="1"><g transform="translate(15.425682, 17.428242)"><g><path d="M 0.125 0 L 0.125 -0.890625 L 0.34375 -0.890625 L 0.34375 -0.75 L 0.359375 -0.75 C 0.378906 -0.800781 0.40625 -0.835938 0.4375 -0.859375 C 0.476562 -0.878906 0.523438 -0.890625 0.578125 -0.890625 C 0.617188 -0.890625 0.65625 -0.878906 0.6875 -0.859375 L 0.640625 -0.671875 L 0.625 -0.671875 C 0.613281 -0.679688 0.597656 -0.6875 0.578125 -0.6875 C 0.566406 -0.6875 0.554688 -0.6875 0.546875 -0.6875 C 0.484375 -0.6875 0.429688 -0.664062 0.390625 -0.625 C 0.359375 -0.582031 0.34375 -0.507812 0.34375 -0.40625 L 0.34375 0 Z M 0.125 0 "/></g></g></g><g fill="#6de4e9" fill-opacity="1"><g transform="translate(16.121231, 17.428242)"><g><path d="M 0.515625 0.015625 C 0.429688 0.015625 0.351562 0 0.28125 -0.03125 C 0.21875 -0.0703125 0.164062 -0.125 0.125 -0.1875 C 0.09375 -0.257812 0.078125 -0.34375 0.078125 -0.4375 C 0.078125 -0.539062 0.09375 -0.625 0.125 -0.6875 C 0.164062 -0.757812 0.21875 -0.8125 0.28125 -0.84375 C 0.351562 -0.882812 0.429688 -0.90625 0.515625 -0.90625 C 0.703125 -0.90625 0.820312 -0.835938 0.875 -0.703125 L 0.71875 -0.59375 L 0.703125 -0.59375 C 0.679688 -0.632812 0.65625 -0.664062 0.625 -0.6875 C 0.59375 -0.707031 0.554688 -0.71875 0.515625 -0.71875 C 0.453125 -0.71875 0.398438 -0.691406 0.359375 -0.640625 C 0.328125 -0.597656 0.3125 -0.53125 0.3125 -0.4375 C 0.3125 -0.351562 0.328125 -0.285156 0.359375 -0.234375 C 0.398438 -0.191406 0.453125 -0.171875 0.515625 -0.171875 C 0.566406 -0.171875 0.609375 -0.179688 0.640625 -0.203125 C 0.671875 -0.234375 0.691406 -0.273438 0.703125 -0.328125 L 0.71875 -0.328125 L 0.890625 -0.234375 C 0.859375 -0.160156 0.8125 -0.0976562 0.75 -0.046875 C 0.695312 -0.00390625 0.617188 0.015625 0.515625 0.015625 Z M 0.515625 0.015625 "/></g></g></g><g fill="#6de4e9" fill-opacity="1"><g transform="translate(17.035495, 17.428242)"><g><path d="M 0.234375 -0.984375 C 0.191406 -0.984375 0.160156 -0.992188 0.140625 -1.015625 C 0.117188 -1.046875 0.109375 -1.082031 0.109375 -1.125 C 0.109375 -1.15625 0.117188 -1.179688 0.140625 -1.203125 C 0.160156 -1.234375 0.191406 -1.25 0.234375 -1.25 C 0.265625 -1.25 0.289062 -1.242188 0.3125 -1.234375 C 0.332031 -1.222656 0.347656 -1.207031 0.359375 -1.1875 C 0.367188 -1.164062 0.375 -1.144531 0.375 -1.125 C 0.375 -1.09375 0.367188 -1.066406 0.359375 -1.046875 C 0.347656 -1.023438 0.332031 -1.007812 0.3125 -1 C 0.289062 -0.988281 0.265625 -0.984375 0.234375 -0.984375 Z M 0.125 0 L 0.125 -0.890625 L 0.34375 -0.890625 L 0.34375 0 Z M 0.125 0 "/></g></g></g><g fill="#6de4e9" fill-opacity="1"><g transform="translate(17.513132, 17.428242)"><g><path d="M 0.125 0 L 0.125 -0.890625 L 0.34375 -0.890625 L 0.34375 -0.75 L 0.359375 -0.75 C 0.410156 -0.851562 0.5 -0.90625 0.625 -0.90625 C 0.726562 -0.90625 0.800781 -0.875 0.84375 -0.8125 C 0.894531 -0.757812 0.921875 -0.679688 0.921875 -0.578125 L 0.921875 0 L 0.703125 0 L 0.703125 -0.546875 C 0.703125 -0.609375 0.6875 -0.648438 0.65625 -0.671875 C 0.632812 -0.703125 0.597656 -0.71875 0.546875 -0.71875 C 0.484375 -0.71875 0.429688 -0.695312 0.390625 -0.65625 C 0.359375 -0.613281 0.34375 -0.546875 0.34375 -0.453125 L 0.34375 0 Z M 0.125 0 "/></g></g></g><g fill="#6de4e9" fill-opacity="1"><g transform="translate(18.552031, 17.428242)"><g><path d="M 0.453125 0.375 C 0.304688 0.375 0.195312 0.351562 0.125 0.3125 C 0.0625 0.269531 0.03125 0.207031 0.03125 0.125 C 0.03125 0.0820312 0.046875 0.046875 0.078125 0.015625 C 0.109375 -0.015625 0.148438 -0.0351562 0.203125 -0.046875 L 0.203125 -0.0625 C 0.171875 -0.0703125 0.148438 -0.0859375 0.140625 -0.109375 C 0.128906 -0.140625 0.125 -0.171875 0.125 -0.203125 C 0.125 -0.265625 0.171875 -0.3125 0.265625 -0.34375 L 0.265625 -0.359375 C 0.210938 -0.378906 0.171875 -0.410156 0.140625 -0.453125 C 0.117188 -0.492188 0.109375 -0.546875 0.109375 -0.609375 C 0.109375 -0.660156 0.125 -0.707031 0.15625 -0.75 C 0.1875 -0.800781 0.226562 -0.835938 0.28125 -0.859375 C 0.332031 -0.890625 0.390625 -0.90625 0.453125 -0.90625 C 0.535156 -0.90625 0.597656 -0.890625 0.640625 -0.859375 C 0.660156 -0.898438 0.675781 -0.945312 0.6875 -1 L 0.703125 -1.015625 L 0.859375 -0.96875 C 0.859375 -0.925781 0.847656 -0.890625 0.828125 -0.859375 C 0.804688 -0.835938 0.773438 -0.8125 0.734375 -0.78125 L 0.734375 -0.765625 C 0.785156 -0.722656 0.8125 -0.664062 0.8125 -0.59375 C 0.8125 -0.53125 0.796875 -0.476562 0.765625 -0.4375 C 0.734375 -0.394531 0.691406 -0.359375 0.640625 -0.328125 C 0.585938 -0.304688 0.523438 -0.296875 0.453125 -0.296875 L 0.421875 -0.296875 C 0.398438 -0.296875 0.382812 -0.296875 0.375 -0.296875 C 0.363281 -0.296875 0.347656 -0.289062 0.328125 -0.28125 C 0.316406 -0.269531 0.3125 -0.257812 0.3125 -0.25 C 0.3125 -0.226562 0.316406 -0.210938 0.328125 -0.203125 C 0.347656 -0.191406 0.375 -0.1875 0.40625 -0.1875 L 0.609375 -0.171875 C 0.796875 -0.171875 0.890625 -0.0859375 0.890625 0.078125 C 0.890625 0.128906 0.875 0.175781 0.84375 0.21875 C 0.820312 0.269531 0.773438 0.304688 0.703125 0.328125 C 0.640625 0.359375 0.554688 0.375 0.453125 0.375 Z M 0.453125 -0.453125 C 0.503906 -0.453125 0.539062 -0.460938 0.5625 -0.484375 C 0.582031 -0.515625 0.59375 -0.550781 0.59375 -0.59375 C 0.59375 -0.644531 0.582031 -0.679688 0.5625 -0.703125 C 0.539062 -0.734375 0.503906 -0.75 0.453125 -0.75 C 0.410156 -0.75 0.378906 -0.734375 0.359375 -0.703125 C 0.335938 -0.679688 0.328125 -0.644531 0.328125 -0.59375 C 0.328125 -0.550781 0.335938 -0.515625 0.359375 -0.484375 C 0.378906 -0.460938 0.410156 -0.453125 0.453125 -0.453125 Z M 0.453125 0.21875 C 0.535156 0.21875 0.59375 0.207031 0.625 0.1875 C 0.65625 0.164062 0.671875 0.132812 0.671875 0.09375 C 0.671875 0.0703125 0.660156 0.0507812 0.640625 0.03125 C 0.628906 0.0195312 0.601562 0.015625 0.5625 0.015625 L 0.390625 0.015625 C 0.378906 0.015625 0.367188 0.0078125 0.359375 0 C 0.316406 0 0.285156 0.00390625 0.265625 0.015625 C 0.253906 0.0351562 0.25 0.0625 0.25 0.09375 C 0.25 0.132812 0.265625 0.164062 0.296875 0.1875 C 0.335938 0.207031 0.390625 0.21875 0.453125 0.21875 Z M 0.453125 0.21875 "/></g></g></g></svg>