<svg xmlns="http://www.w3.org/2000/svg" xmlns:xlink="http://www.w3.org/1999/xlink" width="40" zoomAndPan="magnify" viewBox="0 0 30 30.000001" height="40" preserveAspectRatio="xMidYMid meet" version="1.0"><defs><g/><clipPath id="5607ac5625"><path d="M 0.484375 0 L 28 0 L 28 17 L 0.484375 17 Z M 0.484375 0 " clip-rule="nonzero"/></clipPath><clipPath id="ec69401a22"><path d="M 0.484375 10 L 27 10 L 27 29 L 0.484375 29 Z M 0.484375 10 " clip-rule="nonzero"/></clipPath></defs><g clip-path="url(#5607ac5625)"><path stroke-linecap="butt" transform="matrix(0.725806, 0, 0, 0.725806, 4.517516, 2.903228)" fill="none" stroke-linejoin="miter" d="M 0.551735 13.00156 L 0.551735 0.553122 L 5.535415 0.553122 L 5.535415 2.974997 L 3.054339 2.974997 L 3.054339 4.960935 L 5.406249 4.960935 L 5.406249 7.350518 L 3.054339 7.350518 L 3.054339 13.00156 Z M 6.111283 0.553122 L 9.937846 0.553122 C 10.546006 0.553122 11.014235 0.693053 11.347915 0.967532 C 11.686978 1.242011 11.907637 1.629511 12.02604 2.12465 C 12.139061 2.625171 12.198262 3.26024 12.198262 4.029859 C 12.198262 4.734893 12.106769 5.289234 11.923783 5.682115 C 11.740797 6.080379 11.417881 6.354859 10.965797 6.510935 C 11.342533 6.586282 11.617012 6.77465 11.783853 7.076039 C 11.956075 7.372046 12.036804 7.781074 12.036804 8.292359 L 12.009894 13.00156 L 9.577255 13.00156 L 9.577255 8.1309 C 9.577255 7.781074 9.50729 7.560414 9.372742 7.463539 C 9.238193 7.366664 8.990624 7.318227 8.630033 7.318227 L 8.630033 13.00156 L 6.111283 13.00156 Z M 9.243575 5.160067 C 9.588019 5.160067 9.765624 4.783331 9.765624 4.029859 C 9.765624 3.70156 9.749478 3.45399 9.717186 3.292532 C 9.690276 3.125692 9.636457 3.012671 9.56111 2.95347 C 9.485762 2.888886 9.372742 2.856595 9.227429 2.856595 L 8.646179 2.856595 L 8.646179 5.160067 Z M 15.771874 13.114581 C 14.770832 13.114581 14.006596 12.80781 13.484547 12.19965 C 12.962499 11.586109 12.704165 10.719616 12.704165 9.610935 L 12.704165 3.680032 C 12.704165 2.609025 12.962499 1.801733 13.484547 1.258157 C 14.006596 0.709199 14.770832 0.440102 15.771874 0.440102 C 16.778297 0.440102 17.542533 0.709199 18.064582 1.258157 C 18.586631 1.801733 18.850346 2.609025 18.850346 3.680032 L 18.850346 9.610935 C 18.850346 10.730379 18.586631 11.596872 18.064582 12.205032 C 17.542533 12.813192 16.778297 13.114581 15.771874 13.114581 Z M 15.771874 10.827254 C 15.997915 10.827254 16.14861 10.730379 16.223957 10.536629 C 16.299304 10.342879 16.336978 10.073782 16.336978 9.723956 L 16.336978 3.636977 C 16.336978 3.367879 16.304686 3.14722 16.229339 2.980379 C 16.159374 2.813539 16.014061 2.727428 15.788019 2.727428 C 15.37361 2.727428 15.163714 3.039581 15.163714 3.669268 L 15.163714 9.740102 C 15.163714 10.09531 15.206769 10.369789 15.298262 10.552775 C 15.384374 10.735761 15.54045 10.827254 15.771874 10.827254 Z M 19.625346 13.00156 L 19.625346 0.553122 L 22.192533 0.553122 L 23.333506 6.510935 L 23.333506 0.553122 L 25.739235 0.553122 L 25.739235 13.00156 L 23.306596 13.00156 L 22.063367 6.769268 L 22.063367 13.00156 Z M 19.625346 13.00156 " stroke="#808080" stroke-width="1.086795" stroke-opacity="1" stroke-miterlimit="4"/></g><g clip-path="url(#ec69401a22)"><path stroke-linecap="butt" transform="matrix(0.725806, 0, 0, 0.725806, 4.517516, 2.903228)" fill="none" stroke-linejoin="miter" d="M 1.622742 29.002081 L 1.622742 18.943227 L 0.142707 18.943227 L 0.142707 16.553643 L 5.594617 16.553643 L 5.594617 18.943227 L 4.114582 18.943227 L 4.114582 29.002081 Z M 6.068228 29.002081 L 6.068228 16.553643 L 11.05729 16.553643 L 11.05729 18.959373 L 8.603124 18.959373 L 8.603124 21.381248 L 10.949651 21.381248 L 10.949651 23.727775 L 8.603124 23.727775 L 8.603124 26.580206 L 11.213367 26.580206 L 11.213367 29.002081 Z M 11.821526 16.553643 L 15.642707 16.553643 C 16.250867 16.553643 16.724478 16.693574 17.058158 16.968053 C 17.391839 17.242532 17.617881 17.630032 17.730901 18.125171 C 17.849304 18.625692 17.903124 19.260761 17.903124 20.030379 C 17.903124 20.735414 17.811631 21.289754 17.628644 21.682636 C 17.445658 22.075518 17.128124 22.355379 16.67604 22.506074 C 17.052776 22.586803 17.321874 22.775171 17.488714 23.07656 C 17.660936 23.372567 17.747047 23.781595 17.747047 24.29288 L 17.720138 29.002081 L 15.282117 29.002081 L 15.282117 24.131421 C 15.282117 23.781595 15.217533 23.560935 15.077603 23.46406 C 14.943054 23.367185 14.695485 23.318748 14.340276 23.318748 L 14.340276 29.002081 L 11.821526 29.002081 Z M 14.948436 21.160588 C 15.298262 21.160588 15.470485 20.783852 15.470485 20.030379 C 15.470485 19.702081 15.454339 19.454511 15.427429 19.293053 C 15.395137 19.126213 15.341318 19.013192 15.265971 18.953991 C 15.190624 18.889407 15.077603 18.857116 14.93229 18.857116 L 14.35104 18.857116 L 14.35104 21.160588 Z M 18.177603 29.002081 L 19.377776 16.553643 L 23.597221 16.553643 L 24.786631 29.002081 L 22.423957 29.002081 L 22.246353 26.989234 L 20.739408 26.989234 L 20.594096 29.002081 Z M 20.933158 25.003296 L 22.057985 25.003296 L 21.514408 18.668748 L 21.396006 18.668748 Z M 20.933158 25.003296 " stroke="#808080" stroke-width="1.086795" stroke-opacity="1" stroke-miterlimit="4"/></g><g fill="#ffffff" fill-opacity="1"><g transform="translate(4.517516, 12.338712)"><g><path d="M 0.40625 0 L 0.40625 -9.03125 L 4.015625 -9.03125 L 4.015625 -7.28125 L 2.21875 -7.28125 L 2.21875 -5.84375 L 3.921875 -5.84375 L 3.921875 -4.09375 L 2.21875 -4.09375 L 2.21875 0 Z M 0.40625 0 "/></g></g></g><g fill="#ffffff" fill-opacity="1"><g transform="translate(8.554396, 12.338712)"><g><path d="M 0.40625 -9.03125 L 3.171875 -9.03125 C 3.617188 -9.03125 3.960938 -8.929688 4.203125 -8.734375 C 4.441406 -8.535156 4.601562 -8.253906 4.6875 -7.890625 C 4.769531 -7.523438 4.8125 -7.066406 4.8125 -6.515625 C 4.8125 -5.992188 4.742188 -5.585938 4.609375 -5.296875 C 4.484375 -5.015625 4.253906 -4.820312 3.921875 -4.71875 C 4.191406 -4.65625 4.390625 -4.515625 4.515625 -4.296875 C 4.640625 -4.078125 4.703125 -3.785156 4.703125 -3.421875 L 4.671875 0 L 2.90625 0 L 2.90625 -3.53125 C 2.90625 -3.78125 2.859375 -3.941406 2.765625 -4.015625 C 2.671875 -4.085938 2.492188 -4.125 2.234375 -4.125 L 2.234375 0 L 0.40625 0 Z M 2.671875 -5.6875 C 2.921875 -5.6875 3.046875 -5.960938 3.046875 -6.515625 C 3.046875 -6.742188 3.035156 -6.914062 3.015625 -7.03125 C 2.992188 -7.15625 2.953125 -7.238281 2.890625 -7.28125 C 2.835938 -7.332031 2.757812 -7.359375 2.65625 -7.359375 L 2.234375 -7.359375 L 2.234375 -5.6875 Z M 2.671875 -5.6875 "/></g></g></g><g fill="#ffffff" fill-opacity="1"><g transform="translate(13.411273, 12.338712)"><g><path d="M 2.5625 0.078125 C 1.832031 0.078125 1.273438 -0.140625 0.890625 -0.578125 C 0.515625 -1.023438 0.328125 -1.648438 0.328125 -2.453125 L 0.328125 -6.765625 C 0.328125 -7.535156 0.515625 -8.117188 0.890625 -8.515625 C 1.273438 -8.910156 1.832031 -9.109375 2.5625 -9.109375 C 3.289062 -9.109375 3.84375 -8.910156 4.21875 -8.515625 C 4.59375 -8.117188 4.78125 -7.535156 4.78125 -6.765625 L 4.78125 -2.453125 C 4.78125 -1.640625 4.59375 -1.015625 4.21875 -0.578125 C 3.84375 -0.140625 3.289062 0.078125 2.5625 0.078125 Z M 2.5625 -1.578125 C 2.71875 -1.578125 2.820312 -1.644531 2.875 -1.78125 C 2.9375 -1.925781 2.96875 -2.125 2.96875 -2.375 L 2.96875 -6.796875 C 2.96875 -6.992188 2.941406 -7.148438 2.890625 -7.265625 C 2.835938 -7.390625 2.726562 -7.453125 2.5625 -7.453125 C 2.257812 -7.453125 2.109375 -7.222656 2.109375 -6.765625 L 2.109375 -2.359375 C 2.109375 -2.109375 2.140625 -1.914062 2.203125 -1.78125 C 2.265625 -1.644531 2.382812 -1.578125 2.5625 -1.578125 Z M 2.5625 -1.578125 "/></g></g></g><g fill="#ffffff" fill-opacity="1"><g transform="translate(18.362776, 12.338712)"><g><path d="M 0.40625 0 L 0.40625 -9.03125 L 2.265625 -9.03125 L 3.09375 -4.71875 L 3.09375 -9.03125 L 4.84375 -9.03125 L 4.84375 0 L 3.078125 0 L 2.171875 -4.515625 L 2.171875 0 Z M 0.40625 0 "/></g></g></g><g fill="#ffffff" fill-opacity="1"><g transform="translate(4.517516, 23.951615)"><g><path d="M 1.171875 0 L 1.171875 -7.296875 L 0.109375 -7.296875 L 0.109375 -9.03125 L 4.0625 -9.03125 L 4.0625 -7.296875 L 2.984375 -7.296875 L 2.984375 0 Z M 1.171875 0 "/></g></g></g><g fill="#ffffff" fill-opacity="1"><g transform="translate(8.522854, 23.951615)"><g><path d="M 0.40625 0 L 0.40625 -9.03125 L 4.015625 -9.03125 L 4.015625 -7.28125 L 2.234375 -7.28125 L 2.234375 -5.53125 L 3.9375 -5.53125 L 3.9375 -3.828125 L 2.234375 -3.828125 L 2.234375 -1.75 L 4.125 -1.75 L 4.125 0 Z M 0.40625 0 "/></g></g></g><g fill="#ffffff" fill-opacity="1"><g transform="translate(12.696398, 23.951615)"><g><path d="M 0.40625 -9.03125 L 3.171875 -9.03125 C 3.617188 -9.03125 3.960938 -8.929688 4.203125 -8.734375 C 4.441406 -8.535156 4.601562 -8.253906 4.6875 -7.890625 C 4.769531 -7.523438 4.8125 -7.066406 4.8125 -6.515625 C 4.8125 -5.992188 4.742188 -5.585938 4.609375 -5.296875 C 4.484375 -5.015625 4.253906 -4.820312 3.921875 -4.71875 C 4.191406 -4.65625 4.390625 -4.515625 4.515625 -4.296875 C 4.640625 -4.078125 4.703125 -3.785156 4.703125 -3.421875 L 4.671875 0 L 2.90625 0 L 2.90625 -3.53125 C 2.90625 -3.78125 2.859375 -3.941406 2.765625 -4.015625 C 2.671875 -4.085938 2.492188 -4.125 2.234375 -4.125 L 2.234375 0 L 0.40625 0 Z M 2.671875 -5.6875 C 2.921875 -5.6875 3.046875 -5.960938 3.046875 -6.515625 C 3.046875 -6.742188 3.035156 -6.914062 3.015625 -7.03125 C 2.992188 -7.15625 2.953125 -7.238281 2.890625 -7.28125 C 2.835938 -7.332031 2.757812 -7.359375 2.65625 -7.359375 L 2.234375 -7.359375 L 2.234375 -5.6875 Z M 2.671875 -5.6875 "/></g></g></g><g fill="#ffffff" fill-opacity="1"><g transform="translate(17.553276, 23.951615)"><g><path d="M 0.15625 0 L 1.03125 -9.03125 L 4.09375 -9.03125 L 4.953125 0 L 3.234375 0 L 3.109375 -1.46875 L 2.015625 -1.46875 L 1.90625 0 Z M 2.15625 -2.90625 L 2.96875 -2.90625 L 2.578125 -7.5 L 2.5 -7.5 Z M 2.15625 -2.90625 "/></g></g></g></svg>