<svg xmlns="http://www.w3.org/2000/svg" xmlns:xlink="http://www.w3.org/1999/xlink" width="700" zoomAndPan="magnify" viewBox="0 0 525 374.999991" height="500" preserveAspectRatio="xMidYMid meet" version="1.0"><defs><g/></defs><g fill="#ffffff" fill-opacity="1"><g transform="translate(107.354853, 222.584544)"><g><path d="M 3.46875 0 L 3.46875 -78.234375 L 34.796875 -78.234375 L 34.796875 -63.03125 L 19.21875 -63.03125 L 19.21875 -50.546875 L 33.96875 -50.546875 L 33.96875 -35.515625 L 19.21875 -35.515625 L 19.21875 0 Z M 3.46875 0 "/></g></g></g><g fill="#ffffff" fill-opacity="1"><g transform="translate(143.692069, 222.584544)"><g><path d="M 3.46875 -78.234375 L 27.5 -78.234375 C 31.332031 -78.234375 34.296875 -77.367188 36.390625 -75.640625 C 38.484375 -73.910156 39.894531 -71.476562 40.625 -68.34375 C 41.351562 -65.21875 41.71875 -61.226562 41.71875 -56.375 C 41.71875 -51.945312 41.140625 -48.488281 39.984375 -46 C 38.828125 -43.507812 36.820312 -41.773438 33.96875 -40.796875 C 36.34375 -40.316406 38.0625 -39.132812 39.125 -37.25 C 40.1875 -35.363281 40.71875 -32.8125 40.71875 -29.59375 L 40.53125 0 L 25.234375 0 L 25.234375 -30.609375 C 25.234375 -32.785156 24.804688 -34.175781 23.953125 -34.78125 C 23.097656 -35.394531 21.550781 -35.703125 19.3125 -35.703125 L 19.3125 0 L 3.46875 0 Z M 23.140625 -49.265625 C 25.316406 -49.265625 26.40625 -51.632812 26.40625 -56.375 C 26.40625 -58.4375 26.3125 -59.984375 26.125 -61.015625 C 25.945312 -62.054688 25.613281 -62.769531 25.125 -63.15625 C 24.644531 -63.550781 23.953125 -63.75 23.046875 -63.75 L 19.40625 -63.75 L 19.40625 -49.265625 Z M 23.140625 -49.265625 "/></g></g></g><g fill="#ffffff" fill-opacity="1"><g transform="translate(187.13278, 222.584544)"><g><path d="M 22.125 0.734375 C 15.8125 0.734375 11.015625 -1.191406 7.734375 -5.046875 C 4.460938 -8.910156 2.828125 -14.332031 2.828125 -21.3125 L 2.828125 -58.5625 C 2.828125 -65.300781 4.460938 -70.382812 7.734375 -73.8125 C 11.015625 -77.25 15.8125 -78.96875 22.125 -78.96875 C 28.445312 -78.96875 33.242188 -77.25 36.515625 -73.8125 C 39.796875 -70.382812 41.4375 -65.300781 41.4375 -58.5625 L 41.4375 -21.3125 C 41.4375 -14.269531 39.796875 -8.832031 36.515625 -5 C 33.242188 -1.175781 28.445312 0.734375 22.125 0.734375 Z M 22.125 -13.65625 C 23.53125 -13.65625 24.472656 -14.265625 24.953125 -15.484375 C 25.441406 -16.703125 25.6875 -18.398438 25.6875 -20.578125 L 25.6875 -58.84375 C 25.6875 -60.539062 25.457031 -61.921875 25 -62.984375 C 24.539062 -64.046875 23.613281 -64.578125 22.21875 -64.578125 C 19.613281 -64.578125 18.3125 -62.601562 18.3125 -58.65625 L 18.3125 -20.5 C 18.3125 -18.25 18.582031 -16.546875 19.125 -15.390625 C 19.675781 -14.234375 20.675781 -13.65625 22.125 -13.65625 Z M 22.125 -13.65625 "/></g></g></g><g fill="#ffffff" fill-opacity="1"><g transform="translate(231.393143, 222.584544)"><g><path d="M 3.46875 0 L 3.46875 -78.234375 L 19.578125 -78.234375 L 26.78125 -40.796875 L 26.78125 -78.234375 L 41.890625 -78.234375 L 41.890625 0 L 26.59375 0 L 18.765625 -39.15625 L 18.765625 0 Z M 3.46875 0 "/></g></g></g><g fill="#ffffff" fill-opacity="1"><g transform="translate(276.746344, 222.584544)"><g><path d="M 10.203125 0 L 10.203125 -63.203125 L 0.90625 -63.203125 L 0.90625 -78.234375 L 35.15625 -78.234375 L 35.15625 -63.203125 L 25.859375 -63.203125 L 25.859375 0 Z M 10.203125 0 "/></g></g></g><g fill="#ffffff" fill-opacity="1"><g transform="translate(312.810327, 222.584544)"><g><path d="M 3.46875 0 L 3.46875 -78.234375 L 34.796875 -78.234375 L 34.796875 -63.109375 L 19.40625 -63.109375 L 19.40625 -47.90625 L 34.15625 -47.90625 L 34.15625 -33.15625 L 19.40625 -33.15625 L 19.40625 -15.203125 L 35.796875 -15.203125 L 35.796875 0 Z M 3.46875 0 "/></g></g></g><g fill="#ffffff" fill-opacity="1"><g transform="translate(350.33146, 222.584544)"><g><path d="M 3.46875 -78.234375 L 27.5 -78.234375 C 31.332031 -78.234375 34.296875 -77.367188 36.390625 -75.640625 C 38.484375 -73.910156 39.894531 -71.476562 40.625 -68.34375 C 41.351562 -65.21875 41.71875 -61.226562 41.71875 -56.375 C 41.71875 -51.945312 41.140625 -48.488281 39.984375 -46 C 38.828125 -43.507812 36.820312 -41.773438 33.96875 -40.796875 C 36.34375 -40.316406 38.0625 -39.132812 39.125 -37.25 C 40.1875 -35.363281 40.71875 -32.8125 40.71875 -29.59375 L 40.53125 0 L 25.234375 0 L 25.234375 -30.609375 C 25.234375 -32.785156 24.804688 -34.175781 23.953125 -34.78125 C 23.097656 -35.394531 21.550781 -35.703125 19.3125 -35.703125 L 19.3125 0 L 3.46875 0 Z M 23.140625 -49.265625 C 25.316406 -49.265625 26.40625 -51.632812 26.40625 -56.375 C 26.40625 -58.4375 26.3125 -59.984375 26.125 -61.015625 C 25.945312 -62.054688 25.613281 -62.769531 25.125 -63.15625 C 24.644531 -63.550781 23.953125 -63.75 23.046875 -63.75 L 19.40625 -63.75 L 19.40625 -49.265625 Z M 23.140625 -49.265625 "/></g></g></g><g fill="#ffffff" fill-opacity="1"><g transform="translate(393.772172, 222.584544)"><g><path d="M 1.359375 0 L 8.921875 -78.234375 L 35.421875 -78.234375 L 42.890625 0 L 28.046875 0 L 26.953125 -12.65625 L 17.484375 -12.65625 L 16.578125 0 Z M 18.671875 -25.140625 L 25.78125 -25.140625 L 22.3125 -64.9375 L 21.578125 -64.9375 Z M 18.671875 -25.140625 "/></g></g></g><path stroke-linecap="butt" transform="matrix(1.794074, 0, 0, 1.794074, 47.824302, 241.908222)" fill="none" stroke-linejoin="miter" d="M -0.0000461573 5.000175 L 84.433734 5.000175 " stroke="#ffffff" stroke-width="10" stroke-opacity="1" stroke-miterlimit="4"/><path stroke-linecap="butt" transform="matrix(0, 1.794074, -1.794074, 0, 65.75585, 106.530514)" fill="none" stroke-linejoin="miter" d="M 0.000410348 5.00018 L 82.463727 5.00018 " stroke="#ffffff" stroke-width="10" stroke-opacity="1" stroke-miterlimit="4"/><path stroke-linecap="butt" transform="matrix(-1.89505, 0, 0, -1.89505, 477.166799, 125.467566)" fill="none" stroke-linejoin="miter" d="M -0.000617284 5.000069 L 84.434009 5.000069 " stroke="#ffffff" stroke-width="10" stroke-opacity="1" stroke-miterlimit="4"/><path stroke-linecap="butt" transform="matrix(0, -1.89505, 1.89505, 0, 458.226048, 268.46471)" fill="none" stroke-linejoin="miter" d="M -0.0000708051 5.000965 L 82.463961 5.000965 " stroke="#ffffff" stroke-width="10" stroke-opacity="1" stroke-miterlimit="4"/><g fill="#6de4e9" fill-opacity="1"><g transform="translate(247.647998, 261.212944)"><g><path d="M 9.96875 0.328125 C 8.289062 0.328125 6.816406 -0.015625 5.546875 -0.703125 C 4.273438 -1.390625 3.289062 -2.398438 2.59375 -3.734375 C 1.894531 -5.066406 1.546875 -6.675781 1.546875 -8.5625 C 1.546875 -10.445312 1.894531 -12.054688 2.59375 -13.390625 C 3.289062 -14.734375 4.273438 -15.75 5.546875 -16.4375 C 6.816406 -17.132812 8.289062 -17.484375 9.96875 -17.484375 C 11.644531 -17.484375 13.117188 -17.132812 14.390625 -16.4375 C 15.660156 -15.75 16.644531 -14.734375 17.34375 -13.390625 C 18.050781 -12.054688 18.40625 -10.445312 18.40625 -8.5625 C 18.40625 -6.675781 18.050781 -5.066406 17.34375 -3.734375 C 16.644531 -2.398438 15.660156 -1.390625 14.390625 -0.703125 C 13.117188 -0.015625 11.644531 0.328125 9.96875 0.328125 Z M 9.96875 -3.328125 C 12.632812 -3.328125 13.96875 -5.070312 13.96875 -8.5625 C 13.96875 -10.375 13.625 -11.703125 12.9375 -12.546875 C 12.25 -13.398438 11.257812 -13.828125 9.96875 -13.828125 C 7.300781 -13.828125 5.96875 -12.070312 5.96875 -8.5625 C 5.96875 -5.070312 7.300781 -3.328125 9.96875 -3.328125 Z M 9.96875 -3.328125 "/></g></g></g><g fill="#6de4e9" fill-opacity="1"><g transform="translate(267.580361, 261.212944)"><g><path d="M 7.859375 0.328125 C 5.921875 0.328125 4.492188 -0.195312 3.578125 -1.25 C 2.660156 -2.300781 2.203125 -3.8125 2.203125 -5.78125 L 2.203125 -17.15625 L 6.515625 -17.15625 L 6.515625 -6.328125 C 6.515625 -5.285156 6.738281 -4.519531 7.1875 -4.03125 C 7.644531 -3.550781 8.34375 -3.3125 9.28125 -3.3125 C 10.476562 -3.3125 11.40625 -3.703125 12.0625 -4.484375 C 12.726562 -5.265625 13.0625 -6.492188 13.0625 -8.171875 L 13.0625 -17.15625 L 17.375 -17.15625 L 17.375 0 L 13.234375 0 L 13.234375 -2.515625 L 12.90625 -2.59375 C 12.351562 -1.613281 11.679688 -0.878906 10.890625 -0.390625 C 10.097656 0.0859375 9.085938 0.328125 7.859375 0.328125 Z M 7.859375 0.328125 "/></g></g></g><g fill="#6de4e9" fill-opacity="1"><g transform="translate(287.419436, 261.212944)"><g><path d="M 11.828125 -4.09375 L 12.953125 -0.90625 C 12.484375 -0.519531 11.894531 -0.21875 11.1875 0 C 10.488281 0.21875 9.691406 0.328125 8.796875 0.328125 C 6.941406 0.328125 5.53125 -0.175781 4.5625 -1.1875 C 3.601562 -2.195312 3.125 -3.664062 3.125 -5.59375 L 3.125 -13.75 L 0.515625 -13.75 L 0.515625 -17.171875 L 3.125 -17.171875 L 3.125 -20.515625 L 7.4375 -21.203125 L 7.4375 -17.171875 L 12.296875 -17.171875 L 12.296875 -13.75 L 7.4375 -13.75 L 7.4375 -5.90625 C 7.4375 -5.0625 7.609375 -4.441406 7.953125 -4.046875 C 8.304688 -3.660156 8.820312 -3.46875 9.5 -3.46875 C 10.269531 -3.46875 10.9375 -3.675781 11.5 -4.09375 Z M 11.828125 -4.09375 "/></g></g></g><g fill="#6de4e9" fill-opacity="1"><g transform="translate(300.743967, 261.212944)"><g><path d="M 8.015625 0.328125 C 6.847656 0.328125 5.773438 0.191406 4.796875 -0.078125 C 3.828125 -0.359375 3 -0.738281 2.3125 -1.21875 C 1.625 -1.695312 1.113281 -2.25 0.78125 -2.875 L 3.171875 -5.453125 L 3.5 -5.453125 C 4.070312 -4.691406 4.742188 -4.117188 5.515625 -3.734375 C 6.296875 -3.347656 7.140625 -3.15625 8.046875 -3.15625 C 8.890625 -3.15625 9.523438 -3.304688 9.953125 -3.609375 C 10.378906 -3.910156 10.59375 -4.335938 10.59375 -4.890625 C 10.59375 -5.328125 10.4375 -5.691406 10.125 -5.984375 C 9.820312 -6.285156 9.328125 -6.519531 8.640625 -6.6875 L 6.375 -7.234375 C 4.675781 -7.640625 3.4375 -8.257812 2.65625 -9.09375 C 1.875 -9.925781 1.484375 -10.984375 1.484375 -12.265625 C 1.484375 -13.335938 1.753906 -14.265625 2.296875 -15.046875 C 2.835938 -15.835938 3.601562 -16.441406 4.59375 -16.859375 C 5.582031 -17.273438 6.734375 -17.484375 8.046875 -17.484375 C 9.597656 -17.484375 10.878906 -17.257812 11.890625 -16.8125 C 12.910156 -16.363281 13.707031 -15.765625 14.28125 -15.015625 L 11.96875 -12.53125 L 11.65625 -12.53125 C 11.1875 -13.070312 10.648438 -13.46875 10.046875 -13.71875 C 9.453125 -13.96875 8.785156 -14.09375 8.046875 -14.09375 C 6.347656 -14.09375 5.5 -13.5625 5.5 -12.5 C 5.5 -12.050781 5.65625 -11.6875 5.96875 -11.40625 C 6.289062 -11.132812 6.851562 -10.910156 7.65625 -10.734375 L 9.765625 -10.265625 C 11.503906 -9.890625 12.773438 -9.289062 13.578125 -8.46875 C 14.378906 -7.644531 14.78125 -6.535156 14.78125 -5.140625 C 14.78125 -4.054688 14.507812 -3.097656 13.96875 -2.265625 C 13.4375 -1.441406 12.660156 -0.800781 11.640625 -0.34375 C 10.628906 0.101562 9.421875 0.328125 8.015625 0.328125 Z M 8.015625 0.328125 "/></g></g></g><g fill="#6de4e9" fill-opacity="1"><g transform="translate(316.556157, 261.212944)"><g><path d="M 9.96875 0.328125 C 8.289062 0.328125 6.816406 -0.015625 5.546875 -0.703125 C 4.273438 -1.390625 3.289062 -2.398438 2.59375 -3.734375 C 1.894531 -5.066406 1.546875 -6.675781 1.546875 -8.5625 C 1.546875 -10.445312 1.894531 -12.054688 2.59375 -13.390625 C 3.289062 -14.734375 4.273438 -15.75 5.546875 -16.4375 C 6.816406 -17.132812 8.289062 -17.484375 9.96875 -17.484375 C 11.644531 -17.484375 13.117188 -17.132812 14.390625 -16.4375 C 15.660156 -15.75 16.644531 -14.734375 17.34375 -13.390625 C 18.050781 -12.054688 18.40625 -10.445312 18.40625 -8.5625 C 18.40625 -6.675781 18.050781 -5.066406 17.34375 -3.734375 C 16.644531 -2.398438 15.660156 -1.390625 14.390625 -0.703125 C 13.117188 -0.015625 11.644531 0.328125 9.96875 0.328125 Z M 9.96875 -3.328125 C 12.632812 -3.328125 13.96875 -5.070312 13.96875 -8.5625 C 13.96875 -10.375 13.625 -11.703125 12.9375 -12.546875 C 12.25 -13.398438 11.257812 -13.828125 9.96875 -13.828125 C 7.300781 -13.828125 5.96875 -12.070312 5.96875 -8.5625 C 5.96875 -5.070312 7.300781 -3.328125 9.96875 -3.328125 Z M 9.96875 -3.328125 "/></g></g></g><g fill="#6de4e9" fill-opacity="1"><g transform="translate(336.48852, 261.212944)"><g><path d="M 7.859375 0.328125 C 5.921875 0.328125 4.492188 -0.195312 3.578125 -1.25 C 2.660156 -2.300781 2.203125 -3.8125 2.203125 -5.78125 L 2.203125 -17.15625 L 6.515625 -17.15625 L 6.515625 -6.328125 C 6.515625 -5.285156 6.738281 -4.519531 7.1875 -4.03125 C 7.644531 -3.550781 8.34375 -3.3125 9.28125 -3.3125 C 10.476562 -3.3125 11.40625 -3.703125 12.0625 -4.484375 C 12.726562 -5.265625 13.0625 -6.492188 13.0625 -8.171875 L 13.0625 -17.15625 L 17.375 -17.15625 L 17.375 0 L 13.234375 0 L 13.234375 -2.515625 L 12.90625 -2.59375 C 12.351562 -1.613281 11.679688 -0.878906 10.890625 -0.390625 C 10.097656 0.0859375 9.085938 0.328125 7.859375 0.328125 Z M 7.859375 0.328125 "/></g></g></g><g fill="#6de4e9" fill-opacity="1"><g transform="translate(356.327595, 261.212944)"><g><path d="M 2.46875 0 L 2.46875 -17.15625 L 6.65625 -17.15625 L 6.65625 -14.59375 L 6.984375 -14.53125 C 7.398438 -15.488281 7.941406 -16.191406 8.609375 -16.640625 C 9.285156 -17.085938 10.109375 -17.3125 11.078125 -17.3125 C 12.046875 -17.3125 12.785156 -17.144531 13.296875 -16.8125 L 12.5625 -13.09375 L 12.234375 -13.03125 C 11.953125 -13.144531 11.679688 -13.226562 11.421875 -13.28125 C 11.171875 -13.332031 10.859375 -13.359375 10.484375 -13.359375 C 9.273438 -13.359375 8.351562 -12.9375 7.71875 -12.09375 C 7.09375 -11.25 6.78125 -9.890625 6.78125 -8.015625 L 6.78125 0 Z M 2.46875 0 "/></g></g></g><g fill="#6de4e9" fill-opacity="1"><g transform="translate(369.776509, 261.212944)"><g><path d="M 10 0.328125 C 8.34375 0.328125 6.875 -0.015625 5.59375 -0.703125 C 4.320312 -1.390625 3.328125 -2.398438 2.609375 -3.734375 C 1.898438 -5.078125 1.546875 -6.6875 1.546875 -8.5625 C 1.546875 -10.445312 1.898438 -12.054688 2.609375 -13.390625 C 3.328125 -14.734375 4.316406 -15.75 5.578125 -16.4375 C 6.847656 -17.132812 8.296875 -17.484375 9.921875 -17.484375 C 13.535156 -17.484375 15.851562 -16.171875 16.875 -13.546875 L 13.921875 -11.421875 L 13.59375 -11.421875 C 13.238281 -12.234375 12.773438 -12.835938 12.203125 -13.234375 C 11.640625 -13.628906 10.878906 -13.828125 9.921875 -13.828125 C 8.671875 -13.828125 7.695312 -13.394531 7 -12.53125 C 6.3125 -11.664062 5.96875 -10.34375 5.96875 -8.5625 C 5.96875 -6.800781 6.316406 -5.488281 7.015625 -4.625 C 7.722656 -3.757812 8.71875 -3.328125 10 -3.328125 C 10.925781 -3.328125 11.710938 -3.578125 12.359375 -4.078125 C 13.015625 -4.578125 13.484375 -5.300781 13.765625 -6.25 L 14.09375 -6.28125 L 17.15625 -4.609375 C 16.71875 -3.148438 15.910156 -1.960938 14.734375 -1.046875 C 13.554688 -0.128906 11.976562 0.328125 10 0.328125 Z M 10 0.328125 "/></g></g></g><g fill="#6de4e9" fill-opacity="1"><g transform="translate(387.454443, 261.212944)"><g><path d="M 4.625 -19.203125 C 3.84375 -19.203125 3.207031 -19.4375 2.71875 -19.90625 C 2.226562 -20.382812 1.984375 -20.992188 1.984375 -21.734375 C 1.984375 -22.472656 2.226562 -23.078125 2.71875 -23.546875 C 3.207031 -24.015625 3.84375 -24.25 4.625 -24.25 C 5.132812 -24.25 5.59375 -24.140625 6 -23.921875 C 6.40625 -23.710938 6.71875 -23.414062 6.9375 -23.03125 C 7.164062 -22.65625 7.28125 -22.222656 7.28125 -21.734375 C 7.28125 -21.242188 7.164062 -20.804688 6.9375 -20.421875 C 6.71875 -20.046875 6.40625 -19.75 6 -19.53125 C 5.59375 -19.3125 5.132812 -19.203125 4.625 -19.203125 Z M 2.46875 0 L 2.46875 -17.15625 L 6.78125 -17.15625 L 6.78125 0 Z M 2.46875 0 "/></g></g></g><g fill="#6de4e9" fill-opacity="1"><g transform="translate(396.689875, 261.212944)"><g><path d="M 2.46875 0 L 2.46875 -17.15625 L 6.609375 -17.15625 L 6.609375 -14.625 L 6.9375 -14.546875 C 8 -16.503906 9.726562 -17.484375 12.125 -17.484375 C 14.101562 -17.484375 15.554688 -16.941406 16.484375 -15.859375 C 17.410156 -14.785156 17.875 -13.210938 17.875 -11.140625 L 17.875 0 L 13.578125 0 L 13.578125 -10.625 C 13.578125 -11.757812 13.347656 -12.578125 12.890625 -13.078125 C 12.429688 -13.585938 11.703125 -13.84375 10.703125 -13.84375 C 9.460938 -13.84375 8.5 -13.441406 7.8125 -12.640625 C 7.125 -11.835938 6.78125 -10.582031 6.78125 -8.875 L 6.78125 0 Z M 2.46875 0 "/></g></g></g><g fill="#6de4e9" fill-opacity="1"><g transform="translate(416.777716, 261.212944)"><g><path d="M 8.890625 7.28125 C 6.066406 7.28125 3.976562 6.863281 2.625 6.03125 C 1.28125 5.195312 0.609375 4.039062 0.609375 2.5625 C 0.609375 1.664062 0.894531 0.925781 1.46875 0.34375 C 2.039062 -0.226562 2.867188 -0.613281 3.953125 -0.8125 L 3.953125 -1.140625 C 3.367188 -1.484375 2.945312 -1.867188 2.6875 -2.296875 C 2.4375 -2.734375 2.3125 -3.238281 2.3125 -3.8125 C 2.3125 -5.1875 3.207031 -6.113281 5 -6.59375 L 5 -6.921875 C 4.082031 -7.453125 3.390625 -8.109375 2.921875 -8.890625 C 2.453125 -9.671875 2.21875 -10.613281 2.21875 -11.71875 C 2.21875 -12.863281 2.476562 -13.867188 3 -14.734375 C 3.53125 -15.597656 4.300781 -16.269531 5.3125 -16.75 C 6.320312 -17.238281 7.53125 -17.484375 8.9375 -17.484375 C 10.375 -17.484375 11.515625 -17.234375 12.359375 -16.734375 C 12.890625 -17.492188 13.195312 -18.378906 13.28125 -19.390625 L 13.609375 -19.59375 L 16.703125 -18.828125 C 16.609375 -18.003906 16.367188 -17.316406 15.984375 -16.765625 C 15.597656 -16.210938 15.003906 -15.71875 14.203125 -15.28125 L 14.203125 -14.9375 C 15.160156 -14.09375 15.640625 -12.90625 15.640625 -11.375 C 15.640625 -10.320312 15.375 -9.375 14.84375 -8.53125 C 14.320312 -7.695312 13.554688 -7.035156 12.546875 -6.546875 C 11.535156 -6.054688 10.332031 -5.8125 8.9375 -5.8125 L 8.28125 -5.828125 C 7.875 -5.847656 7.585938 -5.859375 7.421875 -5.859375 C 7.023438 -5.859375 6.710938 -5.75 6.484375 -5.53125 C 6.265625 -5.320312 6.15625 -5.054688 6.15625 -4.734375 C 6.15625 -4.367188 6.300781 -4.082031 6.59375 -3.875 C 6.882812 -3.675781 7.3125 -3.566406 7.875 -3.546875 L 11.703125 -3.40625 C 15.503906 -3.289062 17.40625 -1.65625 17.40625 1.5 C 17.40625 2.601562 17.117188 3.585938 16.546875 4.453125 C 15.984375 5.316406 15.066406 6.003906 13.796875 6.515625 C 12.535156 7.023438 10.898438 7.28125 8.890625 7.28125 Z M 8.9375 -8.828125 C 9.769531 -8.828125 10.414062 -9.070312 10.875 -9.5625 C 11.34375 -10.050781 11.578125 -10.742188 11.578125 -11.640625 C 11.578125 -12.546875 11.34375 -13.238281 10.875 -13.71875 C 10.414062 -14.195312 9.769531 -14.4375 8.9375 -14.4375 C 8.101562 -14.4375 7.457031 -14.195312 7 -13.71875 C 6.539062 -13.238281 6.3125 -12.546875 6.3125 -11.640625 C 6.3125 -10.734375 6.539062 -10.035156 7 -9.546875 C 7.457031 -9.066406 8.101562 -8.828125 8.9375 -8.828125 Z M 8.890625 4.15625 C 10.367188 4.15625 11.441406 3.945312 12.109375 3.53125 C 12.773438 3.113281 13.109375 2.570312 13.109375 1.90625 C 13.109375 1.375 12.9375 0.976562 12.59375 0.71875 C 12.25 0.46875 11.707031 0.332031 10.96875 0.3125 L 7.578125 0.15625 C 7.460938 0.15625 7.351562 0.148438 7.25 0.140625 C 7.15625 0.128906 7.0625 0.125 6.96875 0.125 C 6.238281 0.125 5.6875 0.28125 5.3125 0.59375 C 4.9375 0.90625 4.75 1.332031 4.75 1.875 C 4.75 2.601562 5.09375 3.164062 5.78125 3.5625 C 6.476562 3.957031 7.515625 4.15625 8.890625 4.15625 Z M 8.890625 4.15625 "/></g></g></g></svg>